<?xml version="1.0" encoding="utf-8"?>
<!-- Svg Vector Icons : http://www.onlinewebfonts.com/icon -->
<!DOCTYPE svg PUBLIC "-//W3C//DTD SVG 1.1//EN" "http://www.w3.org/Graphics/SVG/1.1/DTD/svg11.dtd">
<svg version="1.1" xmlns="http://www.w3.org/2000/svg" xmlns:xlink="http://www.w3.org/1999/xlink" x="0px" y="0px" viewBox="0 0 1000 1000" enable-background="new 0 0 1000 1000" xml:space="preserve">
<metadata> Svg Vector Icons : http://www.onlinewebfonts.com/icon </metadata>
<g><g><path d="M500,10C229.4,10,10,229.4,10,500c0,270.6,219.4,490,490,490s490-219.4,490-490C990,229.4,770.6,10,500,10z M758.8,725l-39.2,39.2c-7,7-27.5,11.4-28.2,11.4c-124.1,1.1-243.6-47.7-331.4-135.5c-88-88.1-136.9-208-135.5-332.6c0-0.1,4.5-20,11.5-26.9l39.2-39.2c14.4-14.4,41.9-20.9,61.3-14.5l8.3,2.8c19.3,6.5,39.5,27.8,44.8,47.4l19.7,72.4c5.3,19.7-1.9,47.7-16.2,62l-26.2,26.2c25.7,95.2,100.4,169.9,195.7,195.7l26.2-26.2c14.4-14.4,42.4-21.6,62-16.3l72.4,19.8c19.6,5.4,40.9,25.5,47.4,44.7l2.8,8.4C779.6,683.1,773.1,710.7,758.8,725z"/></g><g></g><g></g><g></g><g></g><g></g><g></g><g></g><g></g><g></g><g></g><g></g><g></g><g></g><g></g><g></g></g>
</svg>